<svg xmlns="http://www.w3.org/2000/svg" version="1.1" xmlns:xlink="http://www.w3.org/1999/xlink" xmlns:svgjs="http://svgjs.dev/svgjs" width="1000" height="507" viewBox="0 0 1000 507"><g transform="matrix(1,0,0,1,-0.6060606060606233,0.2622552245860561)"><svg viewBox="0 0 396 201" data-background-color="#ffffff" preserveAspectRatio="xMidYMid meet" height="507" width="1000" xmlns="http://www.w3.org/2000/svg" xmlns:xlink="http://www.w3.org/1999/xlink"><g id="tight-bounds" transform="matrix(1,0,0,1,0.2400000000000091,-0.10397100619684352)"><svg viewBox="0 0 395.52 201.2079420123937" height="201.2079420123937" width="395.52"><g><svg viewBox="0 0 395.52 201.2079420123937" height="201.2079420123937" width="395.52"><g transform="matrix(1,0,0,1,0,148.5779857263297)"><svg viewBox="0 0 395.52 52.62995628606398" height="52.62995628606398" width="395.52"><g><svg viewBox="0 0 395.52 52.62995628606398" height="52.62995628606398" width="395.52"><g><svg viewBox="0 0 395.52 52.62995628606398" height="52.62995628606398" width="395.52"><g transform="matrix(1,0,0,1,0,0)"><svg width="395.52" viewBox="2.549999952316284 -37.650001525878906 285.9300231933594 38.05000305175781" height="52.62995628606398" data-palette-color="#2257bf"><path d="M2.55-31.5L2.55-36.15 26.55-36.15 26.55-31.5 16.85-31.5 16.85 0 12 0 12-31.5 2.55-31.5ZM34.25 0L34.25-36.15 57.75-36.15 57.75-31.5 39.1-31.5 39.1-20.5 55.75-20.5 55.75-15.85 39.1-15.85 39.1-4.65 58.45-4.65 58.45 0 34.25 0ZM66.84-36.15L76.45-36.15Q79.2-36.15 81.52-35.43 83.84-34.7 85.57-33.27 87.3-31.85 88.27-29.78 89.25-27.7 89.25-24.95L89.25-24.95Q89.25-22.8 88.62-20.75 88-18.7 86.55-17.03 85.09-15.35 82.77-14.33 80.45-13.3 77.05-13.3L77.05-13.3 71.7-13.3 71.7 0 66.84 0 66.84-36.15ZM71.7-17.95L76.95-17.95Q79.09-17.95 80.52-18.6 81.95-19.25 82.75-20.28 83.55-21.3 83.9-22.5 84.25-23.7 84.25-24.75L84.25-24.75Q84.25-25.85 83.87-27.03 83.5-28.2 82.67-29.2 81.84-30.2 80.52-30.85 79.2-31.5 77.3-31.5L77.3-31.5 71.7-31.5 71.7-17.95ZM77.15-15.05L82.9-15.2 92.34 0 86.75 0 77.15-15.05ZM99.79-36.15L109.39-36.15Q112.14-36.15 114.47-35.43 116.79-34.7 118.52-33.27 120.24-31.85 121.22-29.78 122.19-27.7 122.19-24.95L122.19-24.95Q122.19-22.8 121.57-20.75 120.94-18.7 119.49-17.03 118.04-15.35 115.72-14.33 113.39-13.3 109.99-13.3L109.99-13.3 104.64-13.3 104.64 0 99.79 0 99.79-36.15ZM104.64-17.95L109.89-17.95Q112.04-17.95 113.47-18.6 114.89-19.25 115.69-20.28 116.49-21.3 116.84-22.5 117.19-23.7 117.19-24.75L117.19-24.75Q117.19-25.85 116.82-27.03 116.44-28.2 115.62-29.2 114.79-30.2 113.47-30.85 112.14-31.5 110.24-31.5L110.24-31.5 104.64-31.5 104.64-17.95ZM110.09-15.05L115.84-15.2 125.29 0 119.69 0 110.09-15.05ZM133.89 0L129.14 0 144.94-37.65 145.24-37.65 160.99 0 155.44 0 143.64-30.05 147.09-32.3 133.89 0ZM136.99-9.5L138.39-13.7 151.84-13.7 153.44-9.5 136.99-9.5ZM167.79-36.15L177.39-36.15Q180.14-36.15 182.46-35.43 184.79-34.7 186.51-33.27 188.24-31.85 189.21-29.78 190.19-27.7 190.19-24.95L190.19-24.95Q190.19-22.8 189.56-20.75 188.94-18.7 187.49-17.03 186.04-15.35 183.71-14.33 181.39-13.3 177.99-13.3L177.99-13.3 172.64-13.3 172.64 0 167.79 0 167.79-36.15ZM172.64-17.95L177.89-17.95Q180.04-17.95 181.46-18.6 182.89-19.25 183.69-20.28 184.49-21.3 184.84-22.5 185.19-23.7 185.19-24.75L185.19-24.75Q185.19-25.85 184.81-27.03 184.44-28.2 183.61-29.2 182.79-30.2 181.46-30.85 180.14-31.5 178.24-31.5L178.24-31.5 172.64-31.5 172.64-17.95ZM178.09-15.05L183.84-15.2 193.29 0 187.69 0 178.09-15.05ZM200.74 0L200.74-36.15 205.59-36.15 205.59 0 200.74 0ZM220.33-36.15L220.33-12.8Q220.33-10.35 221.51-8.43 222.68-6.5 224.63-5.4 226.58-4.3 229.03-4.3L229.03-4.3Q231.58-4.3 233.58-5.4 235.58-6.5 236.73-8.43 237.88-10.35 237.88-12.8L237.88-12.8 237.88-36.15 242.63-36.15 242.63-12.65Q242.63-8.7 240.81-5.75 238.98-2.8 235.91-1.2 232.83 0.4 229.03 0.4L229.03 0.4 229.03 0.4Q225.23 0.4 222.18-1.2 219.13-2.8 217.33-5.75 215.53-8.7 215.53-12.65L215.53-12.65 215.53-36.15 220.33-36.15ZM257.23 0L252.53 0 252.53-37.3 252.58-37.3 271.53-10.4 269.48-10.8 288.38-37.3 288.48-37.3 288.48 0 283.68 0 283.68-26.3 283.98-23.85 270.33-4.55 270.23-4.55 256.38-23.85 257.23-26.1 257.23 0Z" opacity="1" transform="matrix(1,0,0,1,0,0)" fill="#2257bf" class="undefined-text-0" data-fill-palette-color="primary" id="text-0"></path></svg></g></svg></g></svg></g></svg></g><g transform="matrix(1,0,0,1,135.895676697024,0)"><svg viewBox="0 0 123.72864660595201 123.72864660595201" height="123.72864660595201" width="123.72864660595201"><g><svg></svg></g><g id="icon-0"><svg viewBox="0 0 123.72864660595201 123.72864660595201" height="123.72864660595201" width="123.72864660595201"><g><path d="M0 61.864c0-34.167 27.698-61.864 61.864-61.864 34.167 0 61.864 27.698 61.865 61.864 0 34.167-27.698 61.864-61.865 61.865-34.167 0-61.864-27.698-61.864-61.865zM61.864 118.982c31.545 0 57.118-25.573 57.118-57.118 0-31.545-25.573-57.118-57.118-57.118-31.545 0-57.118 25.573-57.118 57.118 0 31.545 25.573 57.118 57.118 57.118z" data-fill-palette-color="tertiary" fill="#2257bf" stroke="transparent"></path></g><g transform="matrix(1,0,0,1,29.55254828306962,30.117681405661664)"><svg viewBox="0 0 64.62355003981277 63.49328379462868" height="63.49328379462868" width="64.62355003981277"><g><svg xmlns="http://www.w3.org/2000/svg" xmlns:xlink="http://www.w3.org/1999/xlink" version="1.1" x="0" y="0" viewBox="0 0.875 100 98.2509994506836" enable-background="new 0 0 100 100" xml:space="preserve" height="63.49328379462868" width="64.62355003981277" class="icon-a-0" data-fill-palette-color="accent" id="a-0"><path fill-rule="evenodd" clip-rule="evenodd" d="M100 49.666c0 13.657-4.907 25.305-14.72 34.946-9.814 9.676-21.564 14.514-35.254 14.514-13.69 0-25.426-4.753-35.204-14.256C4.941 75.296 0 63.682 0 50.026c0-13.655 4.941-25.287 14.822-34.895C24.601 5.627 36.336 0.877 50.026 0.875c13.689 0 25.406 4.684 35.151 14.05C95.059 24.431 100 36.011 100 49.666zM95.119 49.388c0-12.123-4.478-22.514-13.431-31.174C72.8 9.652 62.278 5.373 50.122 5.371l-4.901 10.048 5.343 1.078 4.166-4.166 7.353 0.49 1.471 3.921-4.411 4.411v2.647l2.745 0.539 1.274-2.059 4.853-3.039-0.147 2.059 1.813 3.137-2.156 2.254 1.372 1.324-3.235 0.196 1.324 2.647-7.01 3.333 1.078 3.971h-2.206l-0.979-3.921-5.146-0.098-0.932 1.52-2.107-0.98-3.432 3.431 2.745 3.284-0.098 3.627 2.892 2.157 16.861 1.912 5.343 3.774-0.638 9.362L61.739 73.846c-0.752 0.753-1.487 2.844-2.206 6.275-0.687 3.234-0.931 5.538-0.734 6.91l-1.765 2.01c-1.373-2.712-3.154-6.879-5.344-12.499-0.523-1.927-0.979-4.378-1.372-7.353-0.294-2.45-0.588-4.916-0.882-7.4l-7.353-6.471 6.52-7.695-2.696-3.873c-4.151-0.849-6.847-1.601-8.088-2.254-1.242-0.687-3.382-2.564-6.421-5.637l2.549 4.95-1.716 0.735-3.97-7.451 0.784-6.96-1.226-4.902-3.823-3.725-2.794-0.686-2.451 1.715-2.695 0.687C8.638 28.786 4.93 38.621 4.93 49.73c0 12.418 4.443 22.957 13.333 31.615 8.789 8.562 19.408 12.84 31.859 12.842 12.45 0 23.053-4.362 31.812-13.088C90.723 72.376 95.117 61.805 95.119 49.388z" fill="#2257bf" data-fill-palette-color="accent"></path></svg></g></svg></g></svg></g></svg></g><g></g></svg></g><defs></defs></svg><rect width="395.52" height="201.2079420123937" fill="none" stroke="none" visibility="hidden"></rect></g></svg></g></svg>